<svg width="13" height="12" viewBox="0 0 13 12" fill="none" xmlns="http://www.w3.org/2000/svg">
<path d="M9.36875 3.41016L5.25 7.27148L3.00625 5.17383L2.125 6L5.25 8.92969L10.25 4.24219L9.36875 3.41016ZM6.5 0.140625C3.05 0.140625 0.25 2.76562 0.25 6C0.25 9.23438 3.05 11.8594 6.5 11.8594C9.95 11.8594 12.75 9.23438 12.75 6C12.75 2.76562 9.95 0.140625 6.5 0.140625ZM6.5 10.6875C3.7375 10.6875 1.5 8.58984 1.5 6C1.5 3.41016 3.7375 1.3125 6.5 1.3125C9.2625 1.3125 11.5 3.41016 11.5 6C11.5 8.58984 9.2625 10.6875 6.5 10.6875Z" fill="black" fill-opacity="0.54"/>
</svg>
