<svg width="15" height="9" viewBox="0 0 15 9" fill="none" xmlns="http://www.w3.org/2000/svg">
<path d="M10 3.66138C11.0375 3.66138 11.8687 2.87622 11.8687 1.90356C11.8687 0.930908 11.0375 0.145752 10 0.145752C8.9625 0.145752 8.125 0.930908 8.125 1.90356C8.125 2.87622 8.9625 3.66138 10 3.66138ZM5 3.66138C6.0375 3.66138 6.86875 2.87622 6.86875 1.90356C6.86875 0.930908 6.0375 0.145752 5 0.145752C3.9625 0.145752 3.125 0.930908 3.125 1.90356C3.125 2.87622 3.9625 3.66138 5 3.66138ZM5 4.83325C3.54375 4.83325 0.625 5.5188 0.625 6.88403V8.34888H9.375V6.88403C9.375 5.5188 6.45625 4.83325 5 4.83325ZM10 4.83325C9.81875 4.83325 9.6125 4.84497 9.39375 4.86255C10.1187 5.35474 10.625 6.01685 10.625 6.88403V8.34888H14.375V6.88403C14.375 5.5188 11.4563 4.83325 10 4.83325Z" fill="black" fill-opacity="0.54"/>
</svg>
