<svg width="13" height="13" viewBox="0 0 13 13" fill="none" xmlns="http://www.w3.org/2000/svg">
<path d="M5.875 3.56482H7.125V4.73669H5.875V3.56482ZM5.875 5.90857H7.125V9.42419H5.875V5.90857ZM6.5 0.635132C3.05 0.635132 0.25 3.26013 0.25 6.49451C0.25 9.72888 3.05 12.3539 6.5 12.3539C9.95 12.3539 12.75 9.72888 12.75 6.49451C12.75 3.26013 9.95 0.635132 6.5 0.635132ZM6.5 11.182C3.74375 11.182 1.5 9.07849 1.5 6.49451C1.5 3.91052 3.74375 1.80701 6.5 1.80701C9.25625 1.80701 11.5 3.91052 11.5 6.49451C11.5 9.07849 9.25625 11.182 6.5 11.182Z" fill="black" fill-opacity="0.54"/>
</svg>
